<?xml version="1.0" encoding="UTF-8" standalone="no"?><!DOCTYPE svg PUBLIC "-//W3C//DTD SVG 1.1//EN" "http://www.w3.org/Graphics/SVG/1.1/DTD/svg11.dtd"><svg width="100%" height="100%" viewBox="0 0 3200 3200" version="1.1" xmlns="http://www.w3.org/2000/svg" xmlns:xlink="http://www.w3.org/1999/xlink" xml:space="preserve" xmlns:serif="http://www.serif.com/" style="fill-rule:evenodd;clip-rule:evenodd;stroke-linejoin:round;stroke-miterlimit:2;"><g><path d="M1784.44,2406.32c-427.22,181.261 -940.586,98.144 -1288.74,-249.333c-457.613,-456.728 -457.613,-1198.34 0,-1655.06l5.199,-5.156l555.767,554.69c-143.801,140.244 -233.065,335.567 -233.065,551.448c-0,426.475 348.365,772.718 777.453,772.718c55.459,0 109.57,-5.784 161.741,-16.777c7,15.952 14.219,31.787 21.644,47.473Zm1209.84,-175.372c125.252,-401.087 28.845,-856.551 -289.236,-1174.02c-454.591,-453.71 -1191.6,-455.525 -1648.39,-5.495l-559.447,-558.364c282.765,-281.366 672.685,-455.36 1103,-455.36c862.357,0 1562.48,698.768 1562.48,1559.45c0,235.37 -52.358,458.631 -146.091,658.814c-7.379,-8.43 -14.834,-16.793 -22.313,-25.035Zm-634.944,-456.888l0.37,-1.626l-0.275,1.23l-0.092,0.397l-0.003,-0.001Zm1.151,-5.11l-0.323,1.442l0.581,-2.629l-0.258,1.187Zm1.027,-4.726l-0.319,1.467l0.56,-2.611l-0.241,1.144Zm0.998,-4.735l-0.315,1.491l0.54,-2.594l-0.225,1.103Zm0.968,-4.747l-0.309,1.516l0.519,-2.578l-0.21,1.062Zm0.94,-4.757l-0.304,1.54l0.499,-2.562l-0.195,1.022Zm0.91,-4.767l-0.299,1.565l0.48,-2.549l-0.181,0.984Zm0.881,-4.777l-0.293,1.589l0.461,-2.535l-0.168,0.946Zm0.851,-4.788l-0.287,1.615l0.442,-2.522l-0.155,0.907Zm0.821,-4.797l-0.281,1.639l0.425,-2.51l-0.144,0.871Zm0.792,-4.808l-0.274,1.665l0.406,-2.499l-0.132,0.834Zm0.762,-4.817l-0.268,1.69l0.389,-2.488l-0.121,0.798Zm0.732,-4.828l-0.26,1.716l0.37,-2.478l-0.11,0.762Zm0.701,-4.836l-0.252,1.74l0.353,-2.467l-0.101,0.727Zm0.672,-4.847l-0.245,1.767l0.337,-2.459l-0.092,0.692Zm0.642,-4.856l-0.237,1.792l0.319,-2.449l-0.082,0.657Zm0.611,-4.865l-0.229,1.818l0.303,-2.441l-0.074,0.623Zm0.58,-4.875l-0.219,1.844l0.286,-2.433l-0.067,0.589Zm0.551,-4.883l-0.211,1.869l0.27,-2.425l-0.059,0.556Zm0.519,-4.893l-0.201,1.894l0.253,-2.417l-0.052,0.523Zm0.489,-4.902l-0.192,1.92l0.237,-2.409l-0.045,0.489Zm0.458,-4.911l-0.182,1.945l0.221,-2.401l-0.039,0.456Zm0.427,-4.919l-0.171,1.969l0.205,-2.392l-0.034,0.423Zm0.396,-4.928l-0.16,1.993l0.189,-2.384l-0.029,0.391Zm0.365,-4.937l-0.149,2.016l0.173,-2.374l-0.024,0.358Zm0.333,-4.946l-0.137,2.038l0.157,-2.363l-0.02,0.325Zm0.303,-4.953l-0.126,2.057l0.142,-2.35l-0.016,0.293Zm0.271,-4.962l-0.114,2.074l0.126,-2.334l-0.012,0.26Zm0.239,-4.97l-0.1,2.088l0.11,-2.316l-0.01,0.228Zm0.208,-4.979l-0.088,2.096l0.095,-2.291l-0.007,0.195Zm0.176,-4.986l-0.074,2.095l0.079,-2.258l-0.005,0.163Zm0.144,-4.994l-0.06,2.079l0.063,-2.21l-0.003,0.131Zm0.113,-5.003l-0.046,2.035l0.047,-2.132l-0.001,0.097Zm0.08,-5.009l-0.031,1.927l0.032,-1.993l-0.001,0.066Zm-1059.13,-730.375c-47.299,18.311 -92.356,41.093 -134.645,67.824c-42.289,26.731 -81.811,57.412 -118.042,91.52c72.455,-68.216 158.096,-122.731 252.687,-159.344Zm505.583,-19.821c7.411,2.213 14.775,4.534 22.09,6.959c7.315,2.426 14.58,4.956 21.793,7.588c-14.434,-5.269 -29.069,-10.125 -43.883,-14.547Zm-32.054,-8.831c2.405,0.607 4.807,1.226 7.209,1.857c2.403,0.632 4.808,1.276 7.22,1.935c-4.792,-1.31 -9.603,-2.575 -14.429,-3.792Zm-101.06,-18.515c16.422,1.9 32.689,4.309 48.785,7.213c16.096,2.903 32.021,6.3 47.76,10.176c-31.483,-7.75 -63.704,-13.589 -96.545,-17.389Zm-74.807,-5.06c-5.292,-0.106 -10.598,-0.159 -15.916,-0.159c5.318,0 10.624,0.053 15.916,0.159l5.289,0.124l4.812,0.144l1.667,0.072l4.072,0.136c3.281,0.131 6.557,0.282 9.828,0.461l0.687,0.029l1.574,0.09l1.049,0.055l1.049,0.064l1.572,0.089l2.619,0.166l1.308,0.08l0.561,0.038l0.747,0.048l5.226,0.366c-0,0 5.216,0.401 5.216,0.401l0.744,0.062l0.558,0.043l1.302,0.112l2.602,0.217l1.561,0.141l1.039,0.089l1.039,0.098l1.559,0.141l2.594,0.251l1.297,0.123l0.555,0.057c1.974,0.193 3.947,0.397 5.919,0.608l-5.919,-0.608l-1.852,-0.18l-4.153,-0.392l-2.078,-0.187l-4.163,-0.358l-1.86,-0.155l-5.96,-0.463c-0,0 -5.973,-0.414 -5.973,-0.414l-1.869,-0.118l-4.191,-0.255l-2.098,-0.119l-2.261,-0.119l-13.9,-0.597l-6.479,-0.216l-5.289,-0.124Z" style="fill:#cbcbcb;"/><path d="M2247.77,3016.6c-197.306,89.91 -416.62,140.028 -647.57,140.028c-862.357,0 -1562.48,-698.768 -1562.48,-1559.45c0,-428.364 173.425,-816.62 453.962,-1098.58l3.679,3.672c-457.272,456.681 -457.181,1198.09 0.341,1654.72c348.175,347.499 861.577,429.392 1288.74,248.135c110.856,234.314 269.501,443.115 463.33,611.473Zm-484.974,-657.749l0,0.001l-0,-0.001Zm596.54,-584.785c12.548,-55.059 19.173,-112.344 19.173,-171.155c-0,-426.474 -348.366,-772.718 -777.454,-772.718c-214.716,0 -409.218,86.7 -549.95,226.746l-0.001,-0.001c456.416,-455.533 1197.52,-455.533 1653.94,-0c318.077,317.46 414.486,772.918 289.229,1174.01c-175.705,-193.618 -391.766,-350.303 -634.934,-456.88Z" style="fill:#929292;"/><path d="M1912.69,1915.15c701.887,-1.116 1247.35,557.25 1249.96,1239.5l0.025,8.063c-689.885,0 -1249.99,-559.014 -1249.99,-1247.56Z" style="fill:#8ecbfe;"/><path d="M1978.66,2314.76c716.041,-330.857 1184.02,491.526 1184.06,840.619c0,2.453 -0.011,4.904 -0.038,7.339c-524.229,-2.955 -1014.53,-338.048 -1184.02,-847.958Z" style="fill:#0094f9;"/></g></svg>